<svg xmlns="http://www.w3.org/2000/svg" aria-hidden="true"
    style="position:absolute;width:0;height:0;overflow:hidden">
    <defs>
        <symbol id="icon-github" viewBox="0 0 32 32">
            <path
                d="M16 1.375c-8.282 0-14.996 6.714-14.996 14.996 0 6.585 4.245 12.18 10.148 14.195l0.106 0.031c0.75 0.141 1.025-0.322 1.025-0.721 0-0.356-0.012-1.3-0.019-2.549-4.171 0.905-5.051-2.012-5.051-2.012-0.288-0.925-0.878-1.685-1.653-2.184l-0.016-0.009c-1.358-0.93 0.105-0.911 0.105-0.911 0.987 0.139 1.814 0.718 2.289 1.53l0.008 0.015c0.554 0.995 1.6 1.657 2.801 1.657 0.576 0 1.116-0.152 1.582-0.419l-0.016 0.008c0.072-0.791 0.421-1.489 0.949-2.005l0.001-0.001c-3.33-0.375-6.831-1.665-6.831-7.41 0-0.027-0.001-0.058-0.001-0.089 0-1.521 0.587-2.905 1.547-3.938l-0.003 0.004c-0.203-0.542-0.321-1.168-0.321-1.821 0-0.777 0.166-1.516 0.465-2.182l-0.014 0.034s1.256-0.402 4.124 1.537c1.124-0.321 2.415-0.506 3.749-0.506s2.625 0.185 3.849 0.53l-0.1-0.024c2.849-1.939 4.105-1.537 4.105-1.537 0.285 0.642 0.451 1.39 0.451 2.177 0 0.642-0.11 1.258-0.313 1.83l0.012-0.038c0.953 1.032 1.538 2.416 1.538 3.937 0 0.031 0 0.061-0.001 0.091v-0.005c0 5.761-3.505 7.029-6.842 7.398 0.632 0.647 1.022 1.532 1.022 2.509 0 0.093-0.004 0.186-0.011 0.278l0.001-0.012c0 2.007-0.019 3.619-0.019 4.106 0 0.394 0.262 0.862 1.031 0.712 6.028-2.029 10.292-7.629 10.292-14.226 0-8.272-6.706-14.977-14.977-14.977-0.006 0-0.013 0-0.019 0h0.001z"></path>
        </symbol>
        <symbol id="icon-telegram" viewBox="0 0 32 32">
            <path
                d="M16 0.5c-8.563 0-15.5 6.938-15.5 15.5s6.938 15.5 15.5 15.5c8.563 0 15.5-6.938 15.5-15.5s-6.938-15.5-15.5-15.5zM23.613 11.119l-2.544 11.988c-0.188 0.85-0.694 1.056-1.4 0.656l-3.875-2.856-1.869 1.8c-0.206 0.206-0.381 0.381-0.781 0.381l0.275-3.944 7.181-6.488c0.313-0.275-0.069-0.431-0.482-0.156l-8.875 5.587-3.825-1.194c-0.831-0.262-0.85-0.831 0.175-1.231l14.944-5.763c0.694-0.25 1.3 0.169 1.075 1.219z"></path>
        </symbol>
        <symbol id="icon-email" viewBox="0 0 32 32">
            <path
                d="M27.557 4.245h-23.115c-2.454 0-4.443 1.989-4.443 4.443v14.624c0 2.453 1.989 4.443 4.443 4.443h23.115c2.453 0 4.443-1.989 4.443-4.443v-14.624c0-2.454-1.989-4.443-4.443-4.443zM11.135 20.108l-6.221 5.308c-0.439 0.375-1.099 0.322-1.473-0.117s-0.322-1.099 0.117-1.473l6.221-5.308c0.439-0.375 1.098-0.322 1.473 0.117s0.322 1.098-0.117 1.473zM16 18.090c-0.832-0.002-1.639-0.279-2.269-0.824l0.001 0-0.002-0.002c0.001 0 0.001 0 0.002 0.001l-9.546-8.285c-0.436-0.379-0.483-1.038-0.105-1.474s1.038-0.483 1.474-0.105l9.548 8.287c0.204 0.182 0.54 0.313 0.897 0.311 0.357 0.001 0.687-0.127 0.903-0.314l0.005-0.004 9.538-8.279c0.436-0.378 1.095-0.332 1.474 0.105s0.332 1.095-0.105 1.474l-9.548 8.287c-0.629 0.54-1.434 0.82-2.267 0.821zM28.559 25.298c-0.375 0.439-1.034 0.491-1.473 0.117l-6.221-5.308c-0.439-0.375-0.491-1.034-0.117-1.473s1.034-0.491 1.473-0.117l6.221 5.308c0.439 0.374 0.491 1.034 0.117 1.473z"></path>
        </symbol>
        <symbol id="icon-linkedin" viewBox="0 0 32 32">
            <path
                d="M16 0c-8.838 0-16 7.162-16 16s7.162 16 16 16 16-7.163 16-16-7.163-16-16-16zM11.525 22.694h-3.119v-9.981h3.119v9.981zM9.881 11.463h-0.025c-1.131 0-1.862-0.762-1.862-1.731 0-0.988 0.756-1.731 1.906-1.731s1.856 0.744 1.881 1.731c0.006 0.963-0.725 1.731-1.9 1.731zM24 22.694h-3.538v-5.163c0-1.35-0.55-2.275-1.769-2.275-0.931 0-1.45 0.625-1.688 1.225-0.087 0.212-0.075 0.512-0.075 0.819v5.394h-3.506c0 0 0.044-9.15 0-9.981h3.506v1.569c0.206-0.688 1.325-1.662 3.113-1.662 2.219 0 3.956 1.438 3.956 4.525v5.55z"></path>
        </symbol>

    </defs>
</svg>