<svg xmlns="http://www.w3.org/2000/svg" aria-hidden="true"
    style="position:absolute;width:0;height:0;overflow:hidden">
    <defs>
        <symbol id="icon-github" viewBox="0 0 32 32">
            <path
                d="M16 1.375c-8.282 0-14.996 6.714-14.996 14.996 0 6.585 4.245 12.18 10.148 14.195l0.106 0.031c0.75 0.141 1.025-0.322 1.025-0.721 0-0.356-0.012-1.3-0.019-2.549-4.171 0.905-5.051-2.012-5.051-2.012-0.288-0.925-0.878-1.685-1.653-2.184l-0.016-0.009c-1.358-0.93 0.105-0.911 0.105-0.911 0.987 0.139 1.814 0.718 2.289 1.53l0.008 0.015c0.554 0.995 1.6 1.657 2.801 1.657 0.576 0 1.116-0.152 1.582-0.419l-0.016 0.008c0.072-0.791 0.421-1.489 0.949-2.005l0.001-0.001c-3.33-0.375-6.831-1.665-6.831-7.41 0-0.027-0.001-0.058-0.001-0.089 0-1.521 0.587-2.905 1.547-3.938l-0.003 0.004c-0.203-0.542-0.321-1.168-0.321-1.821 0-0.777 0.166-1.516 0.465-2.182l-0.014 0.034s1.256-0.402 4.124 1.537c1.124-0.321 2.415-0.506 3.749-0.506s2.625 0.185 3.849 0.53l-0.1-0.024c2.849-1.939 4.105-1.537 4.105-1.537 0.285 0.642 0.451 1.39 0.451 2.177 0 0.642-0.11 1.258-0.313 1.83l0.012-0.038c0.953 1.032 1.538 2.416 1.538 3.937 0 0.031 0 0.061-0.001 0.091v-0.005c0 5.761-3.505 7.029-6.842 7.398 0.632 0.647 1.022 1.532 1.022 2.509 0 0.093-0.004 0.186-0.011 0.278l0.001-0.012c0 2.007-0.019 3.619-0.019 4.106 0 0.394 0.262 0.862 1.031 0.712 6.028-2.029 10.292-7.629 10.292-14.226 0-8.272-6.706-14.977-14.977-14.977-0.006 0-0.013 0-0.019 0h0.001z"></path>
        </symbol>
        <symbol id="icon-telegram" viewBox="0 0 32 32">
            <path
                d="M16 0.5c-8.563 0-15.5 6.938-15.5 15.5s6.938 15.5 15.5 15.5c8.563 0 15.5-6.938 15.5-15.5s-6.938-15.5-15.5-15.5zM23.613 11.119l-2.544 11.988c-0.188 0.85-0.694 1.056-1.4 0.656l-3.875-2.856-1.869 1.8c-0.206 0.206-0.381 0.381-0.781 0.381l0.275-3.944 7.181-6.488c0.313-0.275-0.069-0.431-0.482-0.156l-8.875 5.587-3.825-1.194c-0.831-0.262-0.85-0.831 0.175-1.231l14.944-5.763c0.694-0.25 1.3 0.169 1.075 1.219z"></path>
        </symbol>
        <symbol id="icon-email" viewBox="0 0 32 32">
            <path
                d="M27.557 4.245h-23.115c-2.454 0-4.443 1.989-4.443 4.443v14.624c0 2.453 1.989 4.443 4.443 4.443h23.115c2.453 0 4.443-1.989 4.443-4.443v-14.624c0-2.454-1.989-4.443-4.443-4.443zM11.135 20.108l-6.221 5.308c-0.439 0.375-1.099 0.322-1.473-0.117s-0.322-1.099 0.117-1.473l6.221-5.308c0.439-0.375 1.098-0.322 1.473 0.117s0.322 1.098-0.117 1.473zM16 18.090c-0.832-0.002-1.639-0.279-2.269-0.824l0.001 0-0.002-0.002c0.001 0 0.001 0 0.002 0.001l-9.546-8.285c-0.436-0.379-0.483-1.038-0.105-1.474s1.038-0.483 1.474-0.105l9.548 8.287c0.204 0.182 0.54 0.313 0.897 0.311 0.357 0.001 0.687-0.127 0.903-0.314l0.005-0.004 9.538-8.279c0.436-0.378 1.095-0.332 1.474 0.105s0.332 1.095-0.105 1.474l-9.548 8.287c-0.629 0.54-1.434 0.82-2.267 0.821zM28.559 25.298c-0.375 0.439-1.034 0.491-1.473 0.117l-6.221-5.308c-0.439-0.375-0.491-1.034-0.117-1.473s1.034-0.491 1.473-0.117l6.221 5.308c0.439 0.374 0.491 1.034 0.117 1.473z"></path>
        </symbol>
        <symbol id="icon-linkedin" viewBox="0 0 32 32">
            <path
                d="M16 0c-8.838 0-16 7.162-16 16s7.162 16 16 16 16-7.163 16-16-7.163-16-16-16zM11.525 22.694h-3.119v-9.981h3.119v9.981zM9.881 11.463h-0.025c-1.131 0-1.862-0.762-1.862-1.731 0-0.988 0.756-1.731 1.906-1.731s1.856 0.744 1.881 1.731c0.006 0.963-0.725 1.731-1.9 1.731zM24 22.694h-3.538v-5.163c0-1.35-0.55-2.275-1.769-2.275-0.931 0-1.45 0.625-1.688 1.225-0.087 0.212-0.075 0.512-0.075 0.819v5.394h-3.506c0 0 0.044-9.15 0-9.981h3.506v1.569c0.206-0.688 1.325-1.662 3.113-1.662 2.219 0 3.956 1.438 3.956 4.525v5.55z"></path>
        </symbol>
        <symbol id="icon-Rectangle-5" viewBox="0 0 32 32">
            <path fill="none" stroke="#ff31ad" style="stroke: var(--color1, #ff31ad)"
                stroke-linejoin="miter" stroke-linecap="butt" stroke-miterlimit="4"
                stroke-width="2.6667"
                d="M27.198 16.016l-11.27 13.897-11.924-13.924 11.587-13.904 11.607 13.93z"></path>
        </symbol>
        <symbol id="icon-viber" viewBox="0 0 32 32">
            <path
                d="M4.813 0.038c-0.619 0.068-1.317 0.291-1.929 0.609-1.44 0.759-2.511 2.237-2.795 3.866-0.062 0.346-0.065 0.811-0.065 11.563v11.204l0.079 0.349c0.493 2.227 2.066 3.801 4.293 4.293l0.349 0.079h22.51l0.349-0.079c2.227-0.493 3.801-2.066 4.293-4.293l0.079-0.349v-11.204c0-10.752-0.003-11.217-0.065-11.563-0.085-0.5-0.257-1.002-0.517-1.522-0.811-1.632-2.439-2.761-4.266-2.959-0.417-0.044-21.911-0.041-22.315 0.007zM17.036 5.727c1.177 0.147 2.128 0.431 3.171 0.941 1.026 0.503 1.683 0.978 2.552 1.844 0.814 0.818 1.266 1.437 1.745 2.398 0.667 1.341 1.047 2.935 1.112 4.69 0.024 0.599 0.007 0.732-0.13 0.903-0.26 0.332-0.831 0.277-1.026-0.096-0.062-0.123-0.079-0.229-0.099-0.708-0.034-0.735-0.085-1.211-0.188-1.779-0.404-2.227-1.471-4.006-3.175-5.282-1.42-1.067-2.887-1.587-4.81-1.7-0.65-0.038-0.763-0.062-0.91-0.174-0.274-0.216-0.287-0.722-0.024-0.958 0.161-0.147 0.274-0.168 0.831-0.151 0.291 0.010 0.718 0.044 0.951 0.072zM9.216 6.097c0.12 0.041 0.304 0.137 0.411 0.205 0.65 0.431 2.46 2.747 3.051 3.903 0.339 0.66 0.452 1.149 0.346 1.512-0.11 0.39-0.291 0.595-1.102 1.249-0.325 0.263-0.629 0.534-0.677 0.605-0.123 0.178-0.222 0.527-0.222 0.773 0.004 0.571 0.373 1.608 0.859 2.405 0.376 0.619 1.050 1.413 1.717 2.022 0.783 0.718 1.474 1.208 2.254 1.594 1.002 0.499 1.615 0.626 2.063 0.417 0.113-0.051 0.233-0.12 0.27-0.15 0.034-0.031 0.298-0.352 0.585-0.708 0.554-0.698 0.681-0.811 1.060-0.941 0.482-0.164 0.975-0.12 1.471 0.133 0.376 0.195 1.197 0.705 1.728 1.074 0.698 0.489 2.189 1.707 2.391 1.95 0.356 0.438 0.417 0.999 0.178 1.618-0.253 0.653-1.238 1.878-1.926 2.401-0.623 0.472-1.064 0.653-1.645 0.681-0.479 0.024-0.677-0.017-1.29-0.27-4.803-1.981-8.638-4.936-11.683-8.997-1.591-2.121-2.802-4.321-3.63-6.602-0.482-1.331-0.506-1.909-0.109-2.59 0.171-0.287 0.9-0.999 1.43-1.396 0.883-0.657 1.29-0.9 1.615-0.968 0.222-0.048 0.609-0.010 0.855 0.079zM17.272 8.207c2.077 0.304 3.684 1.269 4.738 2.836 0.592 0.883 0.961 1.919 1.088 3.031 0.044 0.407 0.044 1.15-0.003 1.273-0.045 0.116-0.188 0.274-0.311 0.339-0.133 0.068-0.417 0.062-0.575-0.021-0.263-0.133-0.342-0.345-0.342-0.92 0-0.886-0.229-1.82-0.626-2.545-0.452-0.828-1.108-1.512-1.909-1.988-0.688-0.411-1.704-0.715-2.631-0.79-0.335-0.027-0.52-0.096-0.647-0.243-0.195-0.222-0.216-0.523-0.051-0.773 0.178-0.277 0.452-0.322 1.269-0.198zM18.001 10.79c0.674 0.144 1.191 0.4 1.632 0.814 0.568 0.537 0.879 1.187 1.016 2.121 0.092 0.609 0.055 0.848-0.161 1.047-0.202 0.185-0.575 0.192-0.8 0.017-0.164-0.123-0.215-0.253-0.253-0.606-0.044-0.469-0.127-0.797-0.267-1.102-0.301-0.647-0.831-0.982-1.728-1.091-0.421-0.051-0.547-0.099-0.684-0.26-0.25-0.298-0.154-0.78 0.192-0.958 0.13-0.065 0.185-0.072 0.472-0.055 0.178 0.010 0.441 0.041 0.582 0.072z"></path>
        </symbol>
        <symbol id="icon-whatsapp" viewBox="0 0 32 32">
            <path
                d="M16.165 7.575c-4.542 0-8.222 3.654-8.222 8.171 0 1.776 0.584 3.451 1.573 4.796l-1.040 3.045 3.172-1.015c1.294 0.863 2.868 1.345 4.542 1.345 4.542 0 8.247-3.654 8.247-8.171-0.025-4.517-3.73-8.171-8.273-8.171zM20.987 19.121c-0.203 0.558-1.193 1.091-1.624 1.142s-0.431 0.355-2.893-0.584c-2.436-0.964-3.984-3.426-4.111-3.604-0.127-0.152-0.99-1.294-0.99-2.462s0.609-1.751 0.837-1.979c0.228-0.228 0.482-0.305 0.634-0.305s0.33 0.025 0.457 0.025c0.152 0 0.33-0.076 0.533 0.406s0.685 1.649 0.736 1.776 0.101 0.254 0.025 0.406c-0.076 0.152-0.127 0.254-0.228 0.406-0.127 0.127-0.254 0.305-0.355 0.406-0.127 0.127-0.254 0.254-0.101 0.482s0.634 1.015 1.345 1.65c0.914 0.812 1.7 1.066 1.929 1.193s0.381 0.102 0.508-0.051c0.152-0.152 0.609-0.685 0.761-0.939 0.152-0.228 0.33-0.203 0.533-0.127 0.228 0.076 1.396 0.66 1.649 0.787 0.228 0.127 0.406 0.178 0.457 0.279 0.076 0.051 0.076 0.533-0.102 1.091z"></path>
            <path
                d="M23.956 0.013h-15.937c-4.416 0-8.019 3.603-8.019 8.019v15.962c0 4.39 3.603 7.994 8.019 7.994h15.962c4.416 0 8.019-3.604 8.019-8.019v-15.937c-0.025-4.416-3.629-8.019-8.044-8.019zM16.165 25.465c-1.726 0-3.324-0.431-4.745-1.218l-5.431 1.726 1.776-5.202c-0.888-1.472-1.396-3.197-1.396-5.025 0-5.38 4.39-9.719 9.795-9.719s9.795 4.339 9.795 9.719-4.39 9.719-9.795 9.719z"></path>
        </symbol>
        <symbol id="icon-phone" viewBox="0 0 32 32">
            <path d="M6.122 7.785h19.755v15.794h-19.755v-15.794z"></path>
            <path
                d="M6.122 25.666v3.586c0 1.515 1.233 2.748 2.748 2.748h14.259c1.515 0 2.748-1.233 2.748-2.748v-3.586h-19.755zM16 29.958c-0.697 0-1.262-0.565-1.262-1.262s0.565-1.262 1.262-1.262c0.697 0 1.262 0.565 1.262 1.262s-0.565 1.262-1.262 1.262z"></path>
            <path
                d="M23.129 0h-14.259c-1.515 0-2.748 1.233-2.748 2.748v2.95h19.755v-2.95c0-1.515-1.233-2.748-2.748-2.748zM18.945 4.174h-5.889v-2.087h5.889v2.087z"></path>
        </symbol>
    </defs>
</svg>